<svg width="325" height="260" viewBox="0 0 325 260" fill="none" xmlns="http://www.w3.org/2000/svg">
<mask id="path-1-outside-1_0_1" maskUnits="userSpaceOnUse" x="182" y="109" width="144" height="76" fill="black">
<rect fill="white" x="182" y="109" width="144" height="76"/>
<path d="M193.443 182H185.363V133.015H193.443V182ZM189.302 123.319C187.686 123.319 186.373 122.814 185.363 121.804C184.353 120.727 183.848 119.414 183.848 117.865C183.848 116.316 184.353 115.037 185.363 114.027C186.373 112.95 187.652 112.411 189.201 112.411C190.682 112.411 191.962 112.95 193.039 114.027C194.184 115.037 194.756 116.316 194.756 117.865C194.756 119.414 194.217 120.727 193.14 121.804C192.063 122.814 190.783 123.319 189.302 123.319ZM211.833 182H207.086V111.805L214.964 110.694V175.435L211.833 182ZM212.54 145.741L210.116 139.984C211.53 138.166 213.18 136.651 215.065 135.439C216.95 134.16 218.903 133.217 220.923 132.611C222.943 132.005 224.795 131.702 226.478 131.702C231.393 131.702 235.602 132.813 239.103 135.035C242.604 137.19 245.264 140.22 247.082 144.125C248.9 147.963 249.809 152.474 249.809 157.659C249.809 162.642 248.833 167.086 246.88 170.991C244.995 174.829 242.301 177.859 238.8 180.081C235.299 182.236 231.09 183.313 226.175 183.313C224.424 183.313 222.539 182.976 220.519 182.303C218.566 181.63 216.647 180.687 214.762 179.475C212.944 178.263 211.328 176.815 209.914 175.132L212.338 169.678C214.223 171.765 216.243 173.449 218.398 174.728C220.553 175.94 223.212 176.546 226.377 176.546C229.744 176.546 232.538 175.704 234.76 174.021C237.049 172.338 238.766 170.082 239.911 167.254C241.056 164.426 241.628 161.261 241.628 157.76C241.628 153.989 241.089 150.656 240.012 147.761C238.935 144.866 237.251 142.61 234.962 140.994C232.74 139.311 229.946 138.469 226.579 138.469C223.414 138.469 220.755 139.109 218.6 140.388C216.513 141.667 214.493 143.452 212.54 145.741ZM267.516 182H259.436V133.015H267.516V182ZM263.375 123.319C261.759 123.319 260.446 122.814 259.436 121.804C258.426 120.727 257.921 119.414 257.921 117.865C257.921 116.316 258.426 115.037 259.436 114.027C260.446 112.95 261.726 112.411 263.274 112.411C264.756 112.411 266.035 112.95 267.112 114.027C268.257 115.037 268.829 116.316 268.829 117.865C268.829 119.414 268.291 120.727 267.213 121.804C266.136 122.814 264.857 123.319 263.375 123.319ZM300.45 183.313C295.602 183.38 291.427 182.303 287.926 180.081C284.425 177.792 281.731 174.728 279.846 170.89C278.028 166.985 277.119 162.473 277.119 157.356C277.186 152.373 278.163 147.963 280.048 144.125C282.001 140.287 284.761 137.257 288.33 135.035C291.966 132.813 296.242 131.702 301.157 131.702C306.072 131.702 310.281 132.779 313.782 134.934C317.283 137.089 319.977 140.085 321.862 143.923C323.747 147.761 324.69 152.34 324.69 157.659C324.69 162.642 323.68 167.052 321.66 170.89C319.707 174.728 316.913 177.758 313.277 179.98C309.708 182.202 305.433 183.313 300.45 183.313ZM300.652 176.546C304.019 176.546 306.88 175.704 309.237 174.021C311.594 172.338 313.378 170.082 314.59 167.254C315.869 164.426 316.509 161.261 316.509 157.76C316.509 154.057 315.903 150.757 314.691 147.862C313.546 144.967 311.829 142.677 309.54 140.994C307.318 139.311 304.49 138.469 301.056 138.469C297.757 138.469 294.929 139.311 292.572 140.994C290.215 142.677 288.397 144.933 287.118 147.761C285.906 150.589 285.266 153.754 285.199 157.255C285.199 160.891 285.771 164.19 286.916 167.153C288.061 170.048 289.778 172.338 292.067 174.021C294.424 175.704 297.285 176.546 300.652 176.546Z"/>
</mask>
<g filter="url(#filter0_i_0_1)">
<path d="M193.443 182H185.363V133.015H193.443V182ZM189.302 123.319C187.686 123.319 186.373 122.814 185.363 121.804C184.353 120.727 183.848 119.414 183.848 117.865C183.848 116.316 184.353 115.037 185.363 114.027C186.373 112.95 187.652 112.411 189.201 112.411C190.682 112.411 191.962 112.95 193.039 114.027C194.184 115.037 194.756 116.316 194.756 117.865C194.756 119.414 194.217 120.727 193.14 121.804C192.063 122.814 190.783 123.319 189.302 123.319ZM211.833 182H207.086V111.805L214.964 110.694V175.435L211.833 182ZM212.54 145.741L210.116 139.984C211.53 138.166 213.18 136.651 215.065 135.439C216.95 134.16 218.903 133.217 220.923 132.611C222.943 132.005 224.795 131.702 226.478 131.702C231.393 131.702 235.602 132.813 239.103 135.035C242.604 137.19 245.264 140.22 247.082 144.125C248.9 147.963 249.809 152.474 249.809 157.659C249.809 162.642 248.833 167.086 246.88 170.991C244.995 174.829 242.301 177.859 238.8 180.081C235.299 182.236 231.09 183.313 226.175 183.313C224.424 183.313 222.539 182.976 220.519 182.303C218.566 181.63 216.647 180.687 214.762 179.475C212.944 178.263 211.328 176.815 209.914 175.132L212.338 169.678C214.223 171.765 216.243 173.449 218.398 174.728C220.553 175.94 223.212 176.546 226.377 176.546C229.744 176.546 232.538 175.704 234.76 174.021C237.049 172.338 238.766 170.082 239.911 167.254C241.056 164.426 241.628 161.261 241.628 157.76C241.628 153.989 241.089 150.656 240.012 147.761C238.935 144.866 237.251 142.61 234.962 140.994C232.74 139.311 229.946 138.469 226.579 138.469C223.414 138.469 220.755 139.109 218.6 140.388C216.513 141.667 214.493 143.452 212.54 145.741ZM267.516 182H259.436V133.015H267.516V182ZM263.375 123.319C261.759 123.319 260.446 122.814 259.436 121.804C258.426 120.727 257.921 119.414 257.921 117.865C257.921 116.316 258.426 115.037 259.436 114.027C260.446 112.95 261.726 112.411 263.274 112.411C264.756 112.411 266.035 112.95 267.112 114.027C268.257 115.037 268.829 116.316 268.829 117.865C268.829 119.414 268.291 120.727 267.213 121.804C266.136 122.814 264.857 123.319 263.375 123.319ZM300.45 183.313C295.602 183.38 291.427 182.303 287.926 180.081C284.425 177.792 281.731 174.728 279.846 170.89C278.028 166.985 277.119 162.473 277.119 157.356C277.186 152.373 278.163 147.963 280.048 144.125C282.001 140.287 284.761 137.257 288.33 135.035C291.966 132.813 296.242 131.702 301.157 131.702C306.072 131.702 310.281 132.779 313.782 134.934C317.283 137.089 319.977 140.085 321.862 143.923C323.747 147.761 324.69 152.34 324.69 157.659C324.69 162.642 323.68 167.052 321.66 170.89C319.707 174.728 316.913 177.758 313.277 179.98C309.708 182.202 305.433 183.313 300.45 183.313ZM300.652 176.546C304.019 176.546 306.88 175.704 309.237 174.021C311.594 172.338 313.378 170.082 314.59 167.254C315.869 164.426 316.509 161.261 316.509 157.76C316.509 154.057 315.903 150.757 314.691 147.862C313.546 144.967 311.829 142.677 309.54 140.994C307.318 139.311 304.49 138.469 301.056 138.469C297.757 138.469 294.929 139.311 292.572 140.994C290.215 142.677 288.397 144.933 287.118 147.761C285.906 150.589 285.266 153.754 285.199 157.255C285.199 160.891 285.771 164.19 286.916 167.153C288.061 170.048 289.778 172.338 292.067 174.021C294.424 175.704 297.285 176.546 300.652 176.546Z" fill="#2563EB"/>
</g>
<path d="M193.443 182V183H194.443V182H193.443ZM185.363 182H184.363V183H185.363V182ZM185.363 133.015V132.015H184.363V133.015H185.363ZM193.443 133.015H194.443V132.015H193.443V133.015ZM185.363 121.804L184.633 122.488L184.644 122.5L184.656 122.511L185.363 121.804ZM185.363 114.027L186.07 114.734L186.082 114.723L186.093 114.711L185.363 114.027ZM193.039 114.027L192.332 114.734L192.354 114.756L192.377 114.777L193.039 114.027ZM193.14 121.804L193.824 122.534L193.836 122.523L193.847 122.511L193.14 121.804ZM193.443 181H185.363V183H193.443V181ZM186.363 182V133.015H184.363V182H186.363ZM185.363 134.015H193.443V132.015H185.363V134.015ZM192.443 133.015V182H194.443V133.015H192.443ZM189.302 122.319C187.913 122.319 186.867 121.894 186.07 121.097L184.656 122.511C185.879 123.734 187.459 124.319 189.302 124.319V122.319ZM186.093 121.12C185.265 120.238 184.848 119.173 184.848 117.865H182.848C182.848 119.654 183.441 121.216 184.633 122.488L186.093 121.12ZM184.848 117.865C184.848 116.557 185.264 115.54 186.07 114.734L184.656 113.32C183.442 114.534 182.848 116.076 182.848 117.865H184.848ZM186.093 114.711C186.903 113.846 187.914 113.411 189.201 113.411V111.411C187.391 111.411 185.843 112.053 184.633 113.343L186.093 114.711ZM189.201 113.411C190.409 113.411 191.436 113.838 192.332 114.734L193.746 113.32C192.487 112.061 190.956 111.411 189.201 111.411V113.411ZM192.377 114.777C193.303 115.594 193.756 116.598 193.756 117.865H195.756C195.756 116.034 195.064 114.48 193.701 113.277L192.377 114.777ZM193.756 117.865C193.756 119.153 193.319 120.211 192.433 121.097L193.847 122.511C195.115 121.243 195.756 119.674 195.756 117.865H193.756ZM192.456 121.074C191.565 121.91 190.53 122.319 189.302 122.319V124.319C191.037 124.319 192.561 123.718 193.824 122.534L192.456 121.074ZM211.833 182V183H212.464L212.735 182.43L211.833 182ZM207.086 182H206.086V183H207.086V182ZM207.086 111.805L206.946 110.815L206.086 110.936V111.805H207.086ZM214.964 110.694H215.964V109.543L214.824 109.704L214.964 110.694ZM214.964 175.435L215.866 175.865L215.964 175.661V175.435H214.964ZM212.54 145.741L211.618 146.129L212.248 147.624L213.301 146.39L212.54 145.741ZM210.116 139.984L209.327 139.37L208.967 139.832L209.194 140.372L210.116 139.984ZM215.065 135.439L215.606 136.28L215.616 136.273L215.626 136.266L215.065 135.439ZM239.103 135.035L238.567 135.879L238.579 135.887L239.103 135.035ZM247.082 144.125L246.175 144.547L246.178 144.553L247.082 144.125ZM246.88 170.991L245.985 170.544L245.982 170.55L246.88 170.991ZM238.8 180.081L239.324 180.933L239.336 180.925L238.8 180.081ZM220.519 182.303L220.193 183.248L220.203 183.252L220.519 182.303ZM214.762 179.475L214.207 180.307L214.214 180.312L214.221 180.316L214.762 179.475ZM209.914 175.132L209 174.726L208.746 175.297L209.148 175.775L209.914 175.132ZM212.338 169.678L213.08 169.008L212.049 167.866L211.424 169.272L212.338 169.678ZM218.398 174.728L217.887 175.588L217.897 175.594L217.908 175.6L218.398 174.728ZM234.76 174.021L234.168 173.215L234.162 173.22L234.156 173.224L234.76 174.021ZM239.911 167.254L240.838 167.629L240.838 167.629L239.911 167.254ZM234.962 140.994L234.358 141.791L234.371 141.801L234.385 141.811L234.962 140.994ZM218.6 140.388L218.089 139.528L218.077 139.535L218.6 140.388ZM211.833 181H207.086V183H211.833V181ZM208.086 182V111.805H206.086V182H208.086ZM207.226 112.795L215.104 111.684L214.824 109.704L206.946 110.815L207.226 112.795ZM213.964 110.694V175.435H215.964V110.694H213.964ZM214.061 175.005L210.93 181.57L212.735 182.43L215.866 175.865L214.061 175.005ZM213.462 145.353L211.038 139.596L209.194 140.372L211.618 146.129L213.462 145.353ZM210.905 140.598C212.252 138.867 213.818 137.429 215.606 136.28L214.524 134.598C212.541 135.873 210.808 137.465 209.327 139.37L210.905 140.598ZM215.626 136.266C217.434 135.04 219.295 134.143 221.21 133.569L220.636 131.653C218.511 132.291 216.466 133.28 214.503 134.612L215.626 136.266ZM221.21 133.569C223.159 132.984 224.913 132.702 226.478 132.702V130.702C224.676 130.702 222.726 131.026 220.636 131.653L221.21 133.569ZM226.478 132.702C231.239 132.702 235.254 133.777 238.567 135.879L239.639 134.191C235.95 131.849 231.547 130.702 226.478 130.702V132.702ZM238.579 135.887C241.905 137.934 244.436 140.81 246.175 144.547L247.988 143.703C246.092 139.629 243.303 136.446 239.627 134.183L238.579 135.887ZM246.178 144.553C247.92 148.231 248.809 152.59 248.809 157.659H250.809C250.809 152.358 249.879 147.695 247.986 143.697L246.178 144.553ZM248.809 157.659C248.809 162.508 247.859 166.796 245.985 170.544L247.774 171.438C249.806 167.376 250.809 162.775 250.809 157.659H248.809ZM245.982 170.55C244.175 174.228 241.605 177.116 238.264 179.237L239.336 180.925C242.997 178.602 245.814 175.43 247.777 171.432L245.982 170.55ZM238.276 179.229C234.96 181.27 230.942 182.313 226.175 182.313V184.313C231.239 184.313 235.637 183.202 239.324 180.933L238.276 179.229ZM226.175 182.313C224.552 182.313 222.774 182.001 220.835 181.354L220.203 183.252C222.303 183.952 224.296 184.313 226.175 184.313V182.313ZM220.845 181.358C218.974 180.712 217.126 179.806 215.303 178.634L214.221 180.316C216.168 181.568 218.159 182.547 220.193 183.248L220.845 181.358ZM215.317 178.643C213.578 177.484 212.033 176.1 210.68 174.489L209.148 175.775C210.623 177.531 212.31 179.042 214.207 180.307L215.317 178.643ZM210.828 175.538L213.252 170.084L211.424 169.272L209 174.726L210.828 175.538ZM211.596 170.348C213.54 172.501 215.637 174.251 217.887 175.588L218.908 173.868C216.85 172.646 214.906 171.03 213.08 169.008L211.596 170.348ZM217.908 175.6C220.248 176.916 223.088 177.546 226.377 177.546V175.546C223.337 175.546 220.857 174.964 218.888 173.856L217.908 175.6ZM226.377 177.546C229.915 177.546 232.934 176.659 235.364 174.818L234.156 173.224C232.142 174.75 229.572 175.546 226.377 175.546V177.546ZM235.352 174.827C237.802 173.025 239.629 170.616 240.838 167.629L238.984 166.879C237.903 169.548 236.297 171.65 234.168 173.215L235.352 174.827ZM240.838 167.629C242.037 164.666 242.628 161.371 242.628 157.76H240.628C240.628 161.152 240.074 164.186 238.984 166.879L240.838 167.629ZM242.628 157.76C242.628 153.896 242.076 150.441 240.949 147.412L239.075 148.11C240.102 150.872 240.628 154.083 240.628 157.76H242.628ZM240.949 147.412C239.809 144.348 238.009 141.921 235.539 140.177L234.385 141.811C236.493 143.299 238.06 145.383 239.075 148.11L240.949 147.412ZM235.566 140.197C233.136 138.356 230.117 137.469 226.579 137.469V139.469C229.774 139.469 232.344 140.265 234.358 141.791L235.566 140.197ZM226.579 137.469C223.281 137.469 220.434 138.136 218.089 139.528L219.11 141.248C221.075 140.081 223.547 139.469 226.579 139.469V137.469ZM218.077 139.535C215.883 140.881 213.785 142.74 211.779 145.092L213.301 146.39C215.2 144.163 217.143 142.454 219.122 141.241L218.077 139.535ZM267.516 182V183H268.516V182H267.516ZM259.436 182H258.436V183H259.436V182ZM259.436 133.015V132.015H258.436V133.015H259.436ZM267.516 133.015H268.516V132.015H267.516V133.015ZM259.436 121.804L258.707 122.488L258.718 122.5L258.729 122.511L259.436 121.804ZM259.436 114.027L260.143 114.734L260.155 114.723L260.166 114.711L259.436 114.027ZM267.112 114.027L266.405 114.734L266.427 114.756L266.451 114.777L267.112 114.027ZM267.213 121.804L267.897 122.534L267.909 122.523L267.92 122.511L267.213 121.804ZM267.516 181H259.436V183H267.516V181ZM260.436 182V133.015H258.436V182H260.436ZM259.436 134.015H267.516V132.015H259.436V134.015ZM266.516 133.015V182H268.516V133.015H266.516ZM263.375 122.319C261.986 122.319 260.941 121.894 260.143 121.097L258.729 122.511C259.952 123.734 261.532 124.319 263.375 124.319V122.319ZM260.166 121.12C259.339 120.238 258.921 119.173 258.921 117.865H256.921C256.921 119.654 257.514 121.216 258.707 122.488L260.166 121.12ZM258.921 117.865C258.921 116.557 259.338 115.54 260.143 114.734L258.729 113.32C257.515 114.534 256.921 116.076 256.921 117.865H258.921ZM260.166 114.711C260.977 113.846 261.987 113.411 263.274 113.411V111.411C261.464 111.411 259.916 112.053 258.707 113.343L260.166 114.711ZM263.274 113.411C264.482 113.411 265.509 113.838 266.405 114.734L267.819 113.32C266.56 112.061 265.029 111.411 263.274 111.411V113.411ZM266.451 114.777C267.377 115.594 267.829 116.598 267.829 117.865H269.829C269.829 116.034 269.137 114.48 267.774 113.277L266.451 114.777ZM267.829 117.865C267.829 119.153 267.392 120.211 266.506 121.097L267.92 122.511C269.189 121.243 269.829 119.674 269.829 117.865H267.829ZM266.529 121.074C265.638 121.91 264.603 122.319 263.375 122.319V124.319C265.11 124.319 266.634 123.718 267.897 122.534L266.529 121.074ZM300.45 183.313V182.313L300.436 182.313L300.45 183.313ZM287.926 180.081L287.379 180.918L287.39 180.925L287.926 180.081ZM279.846 170.89L278.94 171.312L278.944 171.322L278.949 171.331L279.846 170.89ZM277.119 157.356L276.119 157.342V157.356H277.119ZM280.048 144.125L279.157 143.671L279.151 143.684L280.048 144.125ZM288.33 135.035L287.809 134.182L287.802 134.186L288.33 135.035ZM313.782 134.934L314.306 134.082L314.306 134.082L313.782 134.934ZM321.862 143.923L320.965 144.364L320.965 144.364L321.862 143.923ZM321.66 170.89L320.775 170.424L320.769 170.437L321.66 170.89ZM313.277 179.98L312.756 179.127L312.749 179.131L313.277 179.98ZM309.237 174.021L308.656 173.207L308.656 173.207L309.237 174.021ZM314.59 167.254L313.679 166.842L313.675 166.851L313.671 166.86L314.59 167.254ZM314.691 147.862L313.761 148.23L313.765 148.239L313.769 148.248L314.691 147.862ZM309.54 140.994L308.936 141.791L308.942 141.795L308.948 141.8L309.54 140.994ZM292.572 140.994L291.991 140.18L291.991 140.18L292.572 140.994ZM287.118 147.761L286.207 147.349L286.203 147.358L286.199 147.367L287.118 147.761ZM285.199 157.255L284.199 157.236L284.199 157.245V157.255H285.199ZM286.916 167.153L285.983 167.513L285.986 167.521L286.916 167.153ZM292.067 174.021L291.475 174.827L291.486 174.835L292.067 174.021ZM300.436 182.313C295.749 182.378 291.773 181.338 288.462 179.237L287.39 180.925C291.082 183.268 295.455 184.382 300.464 184.313L300.436 182.313ZM288.473 179.244C285.126 177.055 282.552 174.13 280.744 170.449L278.949 171.331C280.911 175.326 283.724 178.528 287.379 180.918L288.473 179.244ZM280.753 170.468C279.007 166.717 278.119 162.355 278.119 157.356H276.119C276.119 162.592 277.05 167.252 278.94 171.312L280.753 170.468ZM278.119 157.37C278.185 152.511 279.136 148.25 280.946 144.566L279.151 143.684C277.19 147.675 276.188 152.236 276.119 157.342L278.119 157.37ZM280.939 144.578C282.812 140.899 285.449 138.007 288.859 135.884L287.802 134.186C284.074 136.507 281.19 139.675 279.157 143.672L280.939 144.578ZM288.852 135.888C292.308 133.776 296.397 132.702 301.157 132.702V130.702C296.087 130.702 291.625 131.85 287.809 134.182L288.852 135.888ZM301.157 132.702C305.924 132.702 309.943 133.745 313.258 135.786L314.306 134.082C310.619 131.813 306.221 130.702 301.157 130.702V132.702ZM313.258 135.786C316.592 137.837 319.159 140.688 320.965 144.364L322.76 143.482C320.795 139.482 317.975 136.34 314.306 134.082L313.258 135.786ZM320.965 144.364C322.768 148.035 323.69 152.456 323.69 157.659H325.69C325.69 152.223 324.727 147.487 322.76 143.482L320.965 144.364ZM323.69 157.659C323.69 162.504 322.709 166.75 320.775 170.424L322.545 171.356C324.651 167.354 325.69 162.78 325.69 157.659H323.69ZM320.769 170.437C318.899 174.111 316.232 177.002 312.756 179.127L313.799 180.833C317.594 178.514 320.516 175.345 322.551 171.343L320.769 170.437ZM312.749 179.131C309.366 181.237 305.281 182.313 300.45 182.313V184.313C305.585 184.313 310.051 183.167 313.806 180.829L312.749 179.131ZM300.652 177.546C304.192 177.546 307.266 176.658 309.818 174.835L308.656 173.207C306.495 174.751 303.845 175.546 300.652 175.546V177.546ZM309.818 174.835C312.333 173.038 314.23 170.633 315.509 167.648L313.671 166.86C312.526 169.531 310.854 171.637 308.656 173.207L309.818 174.835ZM315.501 167.666C316.846 164.693 317.509 161.385 317.509 157.76H315.509C315.509 161.137 314.893 164.159 313.679 166.842L315.501 167.666ZM317.509 157.76C317.509 153.948 316.885 150.513 315.614 147.476L313.769 148.248C314.921 151.001 315.509 154.166 315.509 157.76H317.509ZM315.621 147.494C314.414 144.442 312.588 141.994 310.133 140.188L308.948 141.8C311.071 143.361 312.679 145.492 313.761 148.23L315.621 147.494ZM310.144 140.197C307.711 138.354 304.657 137.469 301.056 137.469V139.469C304.324 139.469 306.925 140.268 308.936 141.791L310.144 140.197ZM301.056 137.469C297.579 137.469 294.54 138.359 291.991 140.18L293.153 141.808C295.317 140.262 297.935 139.469 301.056 139.469V137.469ZM291.991 140.18C289.481 141.973 287.554 144.372 286.207 147.349L288.029 148.173C289.241 145.494 290.95 143.381 293.153 141.808L291.991 140.18ZM286.199 147.367C284.93 150.329 284.269 153.623 284.199 157.236L286.199 157.274C286.264 153.884 286.883 150.849 288.037 148.155L286.199 147.367ZM284.199 157.255C284.199 160.997 284.788 164.42 285.983 167.513L287.849 166.793C286.755 163.96 286.199 160.785 286.199 157.255H284.199ZM285.986 167.521C287.193 170.573 289.02 173.021 291.475 174.827L292.66 173.215C290.536 171.654 288.928 169.523 287.846 166.785L285.986 167.521ZM291.486 174.835C294.039 176.658 297.112 177.546 300.652 177.546V175.546C297.459 175.546 294.809 174.751 292.648 173.207L291.486 174.835Z" fill="white" mask="url(#path-1-outside-1_0_1)"/>
<path d="M62.1596 92.0957C61.5386 80.1592 71.4573 70.3466 83.3865 71.096L151.638 75.3835C161.591 76.0087 169.562 83.8694 170.326 93.8119L177.337 185.067C178.198 196.273 169.659 205.988 158.435 206.572L88.3321 210.219C77.3013 210.793 67.8939 202.316 67.32 191.285L62.1596 92.0957Z" fill="#0FD186"/>
<path d="M79.1027 115.687L75.0357 109.505L75.8867 100.42L113.321 101.082L114.171 113.447L104.858 115.622L120.352 165.166L137.452 120.619C137.737 119.931 137.889 119.327 137.908 118.807C137.949 117.681 137.456 116.936 136.428 116.571L127.592 112.775L128.918 101.359L162.843 101.959L163.221 113.015L157.237 120.189L126.366 189.322L103.939 190.875L79.1027 115.687Z" fill="white"/>
<defs>
<filter id="filter0_i_0_1" x="183.848" y="110.694" width="140.842" height="76.72" filterUnits="userSpaceOnUse" color-interpolation-filters="sRGB">
<feFlood flood-opacity="0" result="BackgroundImageFix"/>
<feBlend mode="normal" in="SourceGraphic" in2="BackgroundImageFix" result="shape"/>
<feColorMatrix in="SourceAlpha" type="matrix" values="0 0 0 0 0 0 0 0 0 0 0 0 0 0 0 0 0 0 127 0" result="hardAlpha"/>
<feOffset dy="4"/>
<feGaussianBlur stdDeviation="2"/>
<feComposite in2="hardAlpha" operator="arithmetic" k2="-1" k3="1"/>
<feColorMatrix type="matrix" values="0 0 0 0 0 0 0 0 0 0 0 0 0 0 0 0 0 0 0.25 0"/>
<feBlend mode="normal" in2="shape" result="effect1_innerShadow_0_1"/>
</filter>
</defs>
</svg>
